<?xml version="1.0" encoding="utf-8"?>
<!-- Generator: Adobe Illustrator 22.0.1, SVG Export Plug-In . SVG Version: 6.00 Build 0)  -->
<svg version="1.1" id="Calque_1" xmlns="http://www.w3.org/2000/svg" xmlns:xlink="http://www.w3.org/1999/xlink" x="0px" y="0px"
	 viewBox="0 0 595.3 595.3" style="enable-background:new 0 0 595.3 595.3;" xml:space="preserve">
<g>
	<path d="M320.2,100.2c99.1,0,179.3,80.4,179.3,179.8c-0.1,98.9-80.6,178.9-180.2,178.8c-98.1-0.1-178.3-80.7-178.4-179.2
		C140.8,180.8,221.3,100.2,320.2,100.2z M154.8,279.6c0.1,91.3,73.9,165.1,165.2,165.3c91.2,0.2,165.6-74.2,165.5-165.4
		c-0.1-91.4-74.2-165.4-165.6-165.3C228.8,114.3,154.7,188.5,154.8,279.6z"/>
	<path d="M298.9,252.8c10,0,19.6,0,29.5,0c0,4.6,0,9,0,13.3c0.6,0.1,0.9,0.3,1,0.2c7.5-10.4,18.4-13.6,30.3-13.5
		c6.7,0.1,13.7,0.9,20.2,2.9c11.8,3.6,17.4,13.1,19.4,24.6c1.1,6.1,1.6,12.3,1.7,18.5c0.2,19.4,0.1,38.8,0.1,58.2c0,1-0.1,2-0.2,3.2
		c-10.5,0-20.9,0-31.7,0c-0.1-1.3-0.2-2.7-0.2-4c0-15.7,0.1-31.4-0.1-47.1c-0.1-5.3-0.4-10.7-1.5-15.8c-1.8-8.9-7.5-13.4-16.2-13.8
		c-9.9-0.4-16.4,3.4-19.1,12.2c-1.3,4.2-1.9,8.7-2,13.1c-0.2,16.9-0.1,33.7-0.1,50.6c0,1.5,0,3,0,4.9c-10.4,0-20.6,0-31.1,0
		C298.9,324.4,298.9,288.7,298.9,252.8z"/>
	<path d="M239.7,252.8c12.3,0,24.5,0,36.9,0c0,35.7,0,71.3,0,107.2c-12.2,0-24.4,0-36.9,0C239.7,324.4,239.7,288.7,239.7,252.8z"/>
	<path d="M276.9,217.7c-0.1,10.5-8.4,18.7-19,18.6c-10.4-0.1-18.5-8.3-18.5-18.7c0-10.6,8.2-18.8,18.8-18.8
		C268.8,198.8,276.9,207.1,276.9,217.7z"/>
</g>
</svg>
